<svg width="24" height="24" viewBox="0 0 9 9" fill="#fff" stroke="#fff" xmlns="http://www.w3.org/2000/svg"><path d="M12 10.483 7.836 6.32a1.075 1.075 0 0 0-1.522-.006c-.422.422-.417 1.1.005 1.522L10.484 12l-4.165 4.165a1.074 1.074 0 0 0-.005 1.522 1.075 1.075 0 0 0 1.522-.006L12 13.517l4.164 4.164a1.075 1.075 0 0 0 1.522.006c.422-.422.417-1.1-.005-1.522L13.516 12l4.165-4.165c.422-.422.427-1.1.006-1.522a1.075 1.075 0 0 0-1.523.006z" style="fill:#fff;stroke:#fff" stroke="none" fill="none" fill-rule="evenodd" transform="matrix(.61673 0 0 .62338 -2.827 -3.01)"/></svg>