<svg width="100" height="100" fill="none" xmlns="http://www.w3.org/2000/svg"><g clip-path="url(#a)"><path d="M50 5.556a44.444 44.444 0 1 0 0 88.888 44.444 44.444 0 0 0 0-88.888Zm29.028 29.527-36.5 36.473L20.972 50a3.928 3.928 0 1 1 5.556-5.555L42.583 60.5l30.945-30.917a3.93 3.93 0 0 1 5.555 5.556l-.055-.056Z" fill="#21A038"/><path d="m79.028 35.083-36.5 36.473L20.972 50a3.928 3.928 0 1 1 5.556-5.555L42.583 60.5l30.945-30.917a3.93 3.93 0 0 1 5.555 5.556l-.055-.056Z" fill="#fff"/></g><defs><clipPath id="a"><path fill="#fff" d="M0 0h100v100H0z"/></clipPath></defs></svg>